<?xml version="1.0" standalone="no"?>
<!DOCTYPE svg PUBLIC "-//W3C//DTD SVG 20010904//EN"
 "http://www.w3.org/TR/2001/REC-SVG-20010904/DTD/svg10.dtd">
<svg version="1.0" xmlns="http://www.w3.org/2000/svg"
 width="300.000000pt" height="196.000000pt" viewBox="0 0 300.000000 196.000000"
 preserveAspectRatio="xMidYMid meet">

<g transform="translate(0.000000,196.000000) scale(0.100000,-0.100000)"
fill="#000000" stroke="none">
<path d="M1853 1888 c-11 -13 -28 -35 -37 -50 l-17 -26 176 -149 c97 -81 248
-206 334 -278 87 -71 215 -177 285 -235 l127 -105 -1360 -3 -1361 -2 0 -65 0
-65 548 -1 c301 -1 911 -5 1356 -8 l810 -6 -133 -110 c-432 -357 -776 -646
-779 -655 -2 -5 15 -28 36 -52 37 -40 42 -42 59 -27 10 9 88 73 173 144 85 71
209 174 275 229 66 55 241 201 388 324 148 124 265 228 260 232 -22 21 -311
264 -398 335 -54 44 -186 154 -295 245 -230 193 -413 344 -421 348 -3 1 -14
-8 -26 -20z"/>
</g>
</svg>
